name ./resultDataOpenSim/trcMotMarkerGrf/sub06/grf-01-01.mot
datacolumns 19
datarows 12
range 0.47200000 0.51600000
endheader

                time	     ground_force_vx	     ground_force_vy	     ground_force_vz	     ground_force_px	     ground_force_py	     ground_force_pz	   l_ground_force_vx	   l_ground_force_vy	   l_ground_force_vz	   l_ground_force_px	   l_ground_force_py	   l_ground_force_pz	     ground_torque_x	     ground_torque_y	     ground_torque_z	   l_ground_torque_x	   l_ground_torque_y	   l_ground_torque_z	
          0.47200000	        135.57427758	        713.21724141	        -39.19525874	         -0.81230553	          0.00000000	          0.08234897	          0.00000000	          0.00000000	          0.00000000	          0.00000000	          0.00000000	          0.00000000	          0.00000000	          1.38669671	          0.00000000	          0.00000000	          0.00000000	          0.00000000	
          0.47600000	        143.74689207	        725.73355914	        -40.48777532	         -0.81218022	          0.00000000	          0.08234849	          0.00000000	          0.00000000	          0.00000000	          0.00000000	          0.00000000	          0.00000000	          0.00000000	          1.28844403	          0.00000000	          0.00000000	          0.00000000	          0.00000000	
          0.48000000	        152.20149066	        737.34375612	        -41.50238126	         -0.81203088	          0.00000000	          0.08233313	          0.00000000	          0.00000000	          0.00000000	          0.00000000	          0.00000000	          0.00000000	          0.00000000	          1.18922731	          0.00000000	          0.00000000	          0.00000000	          0.00000000	
          0.48400000	        160.78708484	        747.78571638	        -42.16005561	         -0.81184654	          0.00000000	          0.08229921	          0.00000000	          0.00000000	          0.00000000	          0.00000000	          0.00000000	          0.00000000	          0.00000000	          1.09588272	          0.00000000	          0.00000000	          0.00000000	          0.00000000	
          0.48800000	        169.37368000	        756.77913158	        -42.41247431	         -0.81163166	          0.00000000	          0.08224307	          0.00000000	          0.00000000	          0.00000000	          0.00000000	          0.00000000	          0.00000000	          0.00000000	          1.01272595	          0.00000000	          0.00000000	          0.00000000	          0.00000000	
          0.49200000	        177.86539516	        764.06095656	        -42.24864147	         -0.81139318	          0.00000000	          0.08216511	          0.00000000	          0.00000000	          0.00000000	          0.00000000	          0.00000000	          0.00000000	          0.00000000	          0.94051515	          0.00000000	          0.00000000	          0.00000000	          0.00000000	
          0.49600000	        186.20106129	        769.41095170	        -41.69668569	         -0.81114217	          0.00000000	          0.08206999	          0.00000000	          0.00000000	          0.00000000	          0.00000000	          0.00000000	          0.00000000	          0.00000000	          0.87643247	          0.00000000	          0.00000000	          0.00000000	          0.00000000	
          0.50000000	        194.34525985	        772.65746591	        -40.81512432	         -0.81089875	          0.00000000	          0.08195790	          0.00000000	          0.00000000	          0.00000000	          0.00000000	          0.00000000	          0.00000000	          0.00000000	          0.81489131	          0.00000000	          0.00000000	          0.00000000	          0.00000000	
          0.50400000	        202.27844640	        773.66928520	        -39.67798071	         -0.81068221	          0.00000000	          0.08182480	          0.00000000	          0.00000000	          0.00000000	          0.00000000	          0.00000000	          0.00000000	          0.00000000	          0.74869575	          0.00000000	          0.00000000	          0.00000000	          0.00000000	
          0.50800000	        209.98619877	        772.34246329	        -38.35958220	         -0.81050358	          0.00000000	          0.08166745	          0.00000000	          0.00000000	          0.00000000	          0.00000000	          0.00000000	          0.00000000	          0.00000000	          0.67014566	          0.00000000	          0.00000000	          0.00000000	          0.00000000	
          0.51200000	        217.44559977	        768.58039853	        -36.91750170	         -0.81036951	          0.00000000	          0.08148473	          0.00000000	          0.00000000	          0.00000000	          0.00000000	          0.00000000	          0.00000000	          0.00000000	          0.57193845	          0.00000000	          0.00000000	          0.00000000	          0.00000000	
          0.51600000	        224.61348101	        762.26706174	        -35.37650640	         -0.81028191	          0.00000000	          0.08127876	          0.00000000	          0.00000000	          0.00000000	          0.00000000	          0.00000000	          0.00000000	          0.00000000	          0.44791282	          0.00000000	          0.00000000	          0.00000000	          0.00000000	
